# xmcd
#
# Track frame offsets:
#	187
#	16287
#	30750
#	42300
#	58787
#	75600
#	87700
#	101612
#	113650
#	129975
#
# Disc length: 1910 seconds
#
# Revision: 2
# Processed by: cddbd v1.5.2PL0 Copyright (c) Steve Scherf et al.
# Submitted via: EasyCDDAExtractor 10.0.6.1
#
DISCID=7307740a
DTITLE=Anderson, John - 10
DYEAR=1988
DGENRE=Country
TTITLE0=Down In The Orange Grove
TTITLE1=I Hope Things Aren't Like This Tomorrow
TTITLE2=If It Ain't Broke Don't Fix It
TTITLE3=Just To Hold A Little Hand
TTITLE4=The Ballad Of Zero And The Tramp
TTITLE5=Lower On The Hog
TTITLE6=Before I Met You
TTITLE7=The Will Of God
TTITLE8=Warm Place In The Snow
TTITLE9=Light At The End Of The Tunnel
EXTD=
EXTT0=
EXTT1=
EXTT2=
EXTT3=
EXTT4=
EXTT5=
EXTT6=
EXTT7=
EXTT8=
EXTT9=
PLAYORDER=
